<?xml version="1.0" encoding="UTF-8"?>
<svg width="24px" height="24px" viewBox="0 0 24 24" version="1.1" xmlns="http://www.w3.org/2000/svg" xmlns:xlink="http://www.w3.org/1999/xlink">
    <!-- Generator: Sketch 55.2 (78181) - https://sketchapp.com -->
    <title>Icon/24/Medium Copy 2</title>
    <desc>Created with Sketch.</desc>
    <g id="Icon/24/Medium-Copy-2" stroke="none" stroke-width="1" fill="none" fill-rule="evenodd">
        <path d="M12,24 C5.372583,24 0,18.627417 0,12 C0,5.372583 5.372583,0 12,0 C18.627417,0 24,5.372583 24,12 C24,18.627417 18.627417,24 12,24 Z M9.12002399,8.73 L6.91517801,8.73 L6.91517801,15.4983377 L9.12002399,15.4983377 L9.12002399,8.73 Z M8.01759118,5.5 L8.01755192,5.5 L8.00322263,5.5 C7.26330125,5.5 6.78484035,6.01973239 6.78484035,6.66924766 C6.78484035,7.33338354 7.27796424,7.83869561 8.03217565,7.83869561 C8.78646558,7.83869561 9.25069534,7.33338354 9.26502463,6.66924766 C9.26502463,6.01973239 8.78646558,5.5 8.01759118,5.5 Z M10.3400355,15.5271615 L12.5448618,15.5271615 L12.5448618,11.7474353 C12.5448618,11.5451502 12.5591911,11.3430654 12.6174112,11.1984617 C12.7768001,10.7942921 13.1395863,10.3757023 13.7486793,10.3757023 C14.5465067,10.3757023 14.8656573,10.9963769 14.8656573,11.9062591 L14.8656573,15.5271615 L17.070307,15.5271615 L17.070307,11.6462927 C17.070307,9.56736317 15.9825568,8.6 14.5319419,8.6 C13.342493,8.6 12.8203179,9.27835592 12.5301989,9.74040702 L12.5449207,9.74040702 L12.5449207,8.75882381 L10.3400355,8.75882381 C10.3690278,9.39391876 10.3400355,15.5271615 10.3400355,15.5271615 Z" id="Combined-Shape" fill="#858B9A" fill-rule="nonzero"></path>
    </g>
</svg>